<?xml version="1.0" encoding="UTF-8"?>
<svg xmlns="http://www.w3.org/2000/svg" viewBox="0 0 2453.34 1095.88">
    <defs>
        <style>.cls-1{fill:#c8c8c8;}.cls-2{fill:#4d4d4d;}</style>
    </defs>
    <g id="Primary">
        <path class="cls-2"
              d="m617.52,36h665c98,0,252.64-7.17,336,39,65,36,81.79,81.06,81.79,138.06,0,64-14.79,103.94-66.79,130.94-46.29,24.03-131,22-131,22l105.79,91.06h82.93l.28,120.94h-273l-110-75,92,22-148-123,78,14-126-153h173c30,0,82.79-11,82.79-50.94,0-47.29-77.79-54.06-96.79-54.06h-237l-1,187-60,71,79-14-149,123,91-21-107,74h-135v-122h89V157h-126v71h-190V36Z"/>
    </g>
    <g id="Secondary">
        <path class="cls-1"
              d="m1229.66,455.59c.18,15.1-11.08,25.06-12.98,26.68,0,0-.01.01-.02.02-2.23,1.64-3.56,4.24-3.56,7.01v57.44c-.01,5.51-4.48,9.97-9.98,9.97h-14.7c-5.5,0-9.96-4.45-9.97-9.95l-.14-57.59c0-2.69-1.25-5.25-3.4-6.87-.53-.4-1.05-.81-1.47-1.18-2.24-1.96-11.87-12.4-11.59-25.53.35-16.11,13.85-33.91,33.91-33.91s33.71,17.32,33.91,33.91Z"/>
    </g>
</svg>
